<?xml version="1.0" standalone="no"?>
<!DOCTYPE svg PUBLIC "-//W3C//DTD SVG 20010904//EN"
 "http://www.w3.org/TR/2001/REC-SVG-20010904/DTD/svg10.dtd">
<svg version="1.0" xmlns="http://www.w3.org/2000/svg"
 width="429.000000pt" height="79.000000pt" viewBox="0 0 429.000000 79.000000"
 preserveAspectRatio="xMidYMid meet">
<metadata>
Created by potrace 1.15, written by Peter Selinger 2001-2017
</metadata>
<g transform="translate(0.000000,79.000000) scale(0.100000,-0.100000)"
fill="#000000" stroke="none">
<path d="M2746 779 c-128 -19 -241 -100 -292 -212 -26 -56 -29 -72 -29 -172 0
-142 23 -203 104 -286 75 -76 142 -102 266 -102 193 -1 332 87 396 250 19 47
23 78 23 163 1 100 -1 109 -32 172 -53 108 -142 168 -278 188 -77 11 -77 11
-158 -1z m168 -69 c68 -26 125 -86 156 -166 19 -48 23 -78 23 -159 0 -152 -40
-238 -136 -291 -45 -25 -63 -29 -127 -29 -89 1 -135 21 -197 87 -64 70 -87
141 -87 273 -1 101 1 115 27 168 31 62 71 99 133 121 57 21 144 19 208 -4z"/>
<path d="M2775 468 c-33 -18 -45 -40 -45 -83 0 -57 35 -90 93 -89 31 1 46 8
64 28 66 77 -24 192 -112 144z"/>
<path d="M690 751 c0 -15 10 -20 46 -26 36 -5 47 -12 55 -31 5 -14 9 -148 9
-299 0 -151 -4 -285 -9 -299 -8 -19 -19 -26 -55 -31 -36 -6 -46 -11 -46 -26 0
-18 10 -19 160 -19 150 0 160 1 160 19 0 13 -10 20 -36 24 -66 11 -64 -1 -64
327 0 164 3 305 6 314 3 9 24 18 50 22 34 5 44 10 44 25 0 18 -10 19 -160 19
-150 0 -160 -1 -160 -19z"/>
<path d="M1112 680 c1 -88 2 -90 25 -90 19 0 23 5 23 33 0 66 8 75 64 82 28 3
114 5 190 3 l139 -3 -198 -255 c-109 -140 -222 -285 -252 -321 -29 -36 -53
-76 -53 -88 l0 -21 330 0 330 0 0 84 c0 46 3 91 6 100 5 12 0 16 -19 16 -23 0
-26 -5 -32 -49 -12 -88 -4 -86 -246 -90 -178 -3 -211 -1 -203 10 6 8 114 146
240 308 126 162 237 303 246 315 10 12 18 29 18 39 0 16 -21 17 -304 17 l-304
0 0 -90z"/>
<path d="M1760 751 c0 -14 10 -21 37 -28 27 -6 39 -15 44 -33 9 -33 11 -411 3
-528 -6 -77 -10 -93 -25 -97 -11 -4 -19 -15 -19 -26 0 -20 5 -21 178 -17 169
3 179 4 228 30 94 50 144 126 144 223 0 81 -60 148 -143 162 l-40 6 46 23 c64
33 90 74 95 149 4 55 1 64 -24 94 -47 57 -70 61 -309 61 -205 0 -215 -1 -215
-19z m351 -41 c74 -21 108 -100 72 -170 -25 -48 -72 -72 -154 -78 l-69 -5 0
126 c0 91 3 127 13 130 21 9 101 7 138 -3z m47 -324 c39 -20 71 -82 72 -136 0
-44 -36 -118 -71 -143 -33 -24 -110 -39 -160 -31 l-39 7 0 165 0 165 83 -5
c51 -3 95 -11 115 -22z"/>
<path d="M3260 752 c0 -16 9 -22 40 -27 24 -4 44 -14 50 -25 11 -20 14 -569 4
-607 -4 -16 -16 -23 -50 -28 -35 -5 -44 -10 -44 -26 0 -18 8 -19 155 -19 145
0 155 1 155 19 0 14 -10 21 -37 26 -21 4 -44 11 -50 17 -10 8 -13 83 -13 314
l0 304 26 10 c77 30 200 -3 229 -61 21 -40 15 -110 -12 -148 -30 -40 -99 -71
-160 -71 -32 0 -53 -4 -53 -11 0 -6 35 -54 78 -108 42 -53 109 -140 147 -194
l70 -97 78 0 c67 0 77 2 77 18 0 9 -15 24 -33 32 -22 10 -70 65 -149 170
l-117 155 56 19 c131 44 189 176 123 283 -38 63 -58 68 -327 71 -236 3 -243 3
-243 -16z"/>
<path d="M3970 751 c0 -15 10 -20 46 -26 36 -5 47 -12 55 -31 12 -34 12 -580
-1 -604 -6 -12 -26 -21 -55 -26 -35 -5 -45 -10 -45 -25 0 -18 10 -19 160 -19
150 0 160 1 160 19 0 13 -10 20 -36 24 -66 11 -64 -1 -64 327 0 164 3 305 6
314 3 9 24 18 50 22 34 5 44 10 44 25 0 18 -10 19 -160 19 -150 0 -160 -1
-160 -19z"/>
<path d="M229 737 c-91 -34 -155 -94 -198 -187 -23 -49 -26 -67 -26 -165 0
-102 2 -115 31 -175 94 -199 253 -242 476 -129 89 45 207 170 194 205 -5 13
-15 8 -54 -26 -59 -52 -122 -90 -168 -100 -79 -18 -187 45 -234 135 l-20 40
22 9 c13 5 92 42 175 82 176 84 191 99 157 162 -26 50 -90 113 -139 137 -50
24 -166 30 -216 12z m63 -105 c46 -52 99 -148 91 -168 -2 -7 -41 -31 -86 -53
-91 -46 -84 -48 -116 47 -42 122 -24 222 38 222 22 0 40 -12 73 -48z"/>
</g>
</svg>
